<?xml version="1.0"?><svg width="500" height="500" xmlns="http://www.w3.org/2000/svg">
 <title>Surfboard</title>
 <g>
  <title>Layer 1</title>
  <g externalResourcesRequired="false" id="Color">
   <linearGradient y2="0" x2="0.500001" y1="0.999999" x1="0.500001" id="SVGID_1_">
    <stop stop-color="#FFFFFF" offset="0.1227"/>
    <stop stop-color="#FFFFFF" offset="0.8098"/>
    <stop stop-color="#FCEE21" offset="0.8589"/>
   </linearGradient>
   <g id="Layer_6">
    <linearGradient y2="0" x2="0.500005" y1="0.999998" x1="0.500005" id="SVGID_2_">
     <stop stop-color="#FCEE21" offset="0"/>
     <stop stop-color="#FCEE21" offset="1"/>
    </linearGradient>
    <path id="svg_2" d="m179,345.5c0,0 37,120.5 109,65c-5.5,16 -19.5,59.5 -27,59.5c-7.5,0 -19.5,-9.5 -19.5,-9.5c0,0 -14.5,17 -19.5,11c-5,-6 -29,-55.5 -43,-126" fill="#ffffff"/>
   </g>
   <g id="Layer_4">
    <path id="svg_3" d="m171,306.666992c0,0 56.667007,179.333008 128,67.333008c8.666992,-39.333008 43.332001,-174 -2.666992,-270.666992c-33.333008,-9.333 -117.333008,-2 -119.333008,61.334015c0,38 28.332993,57.666992 52,65.332993c23.667007,7.666 -47.332993,-2 -63.667007,-61.332993c9,-35.667007 21.667007,-70.667015 21.667007,-70.667015c0,0 36.667999,-53.332996 85.334015,-43.666996c16,23.666996 42.665985,76.167004 46.165985,126.667004c3.5,50.5 2.5,113.499985 -21.5,205.999985c-6.5,25.5 -15.5,47 -15.5,47c0,0 -61.5,80 -106.5,-98c-1,-6 -4,-29.333008 -4,-29.333008" fill="#00ffff"/>
   </g>
   <g id="Layer_5">
    <linearGradient fill="#ff00ff" y2="0.5" x2="0.999997" y1="0.5" x1="0" id="SVGID_3_">
     <stop fill="#ff00ff" stop-color="#E56525" offset="0"/>
     <stop fill="#ff00ff" stop-color="#E56525" offset="0.9755"/>
    </linearGradient>
    <path id="svg_4" d="m259.5,191.5c0,0 -24.5,-4.5 -30,-29.5c-5.5,-25 13.5,-38.5 25,-42.5c11.5,-4 38.5,-5 58,25.5c3.5,21.5 14,97.5 -4,174c-16,25 -34,26.5 -38.5,27.5c14,-8.5 40.088989,-25.619995 44.5,-69c1.5,-14.75 3.488007,-12.740997 2.25,-21.75c-8.25,-60 -17.75,-87.75 -32.25,-104.75c-17,-22.5 -36,-24.5 -45.5,-11c-9.5,13.5 -2,29.5 3.5,37c5.5,7.5 10.5,11.5 17,14.5z" fill="#ff00ff"/>
   </g>
   <g id="Layer_3">
    <path id="svg_5" d="m167,281c0,0 53,196 137,65c12,-67 17,-93 14,-162c-10,-37 -56,-113.333 -119,-60c-21.667007,19.332993 -38,79 29,102c-25,-8 -88,-47.332993 -35,-115c12,-15 60.332993,-37.667 103,-17c15,43 45,118 0,289c-19,24 -65,101 -127,-78c0,-13 -2,-24 -2,-24" fill="#7f00ff"/>
   </g>
  </g>
  <g id="Outline">
   <path id="svg_6" d="m241,15.825c-159.649002,138.596997 -32.455994,442.981977 -25.438004,458.771985c7.018005,15.790009 25.438004,-7.017975 25.438004,-7.017975c0,0 18.420013,22.807983 25.437988,7.017975c7.018005,-15.790009 134.210022,-320.175003 -25.437988,-458.771985zm24.382996,450.085004c-6.72699,15.136963 -24.382996,-6.72699 -24.382996,-6.72699c0,0 -17.656998,21.862976 -24.384003,6.72699c-6.725998,-15.13501 -128.645996,-306.898026 24.384003,-439.748034c153.028992,132.849993 31.109009,424.613024 24.382996,439.748034z"/>
  </g>
  <g id="Shadows">
   <linearGradient y2="0.507377" x2="1" y1="0.507377" x1="0" id="SVGID_4_">
    <stop stop-color="#020202" stop-opacity="0.26" offset="0"/>
    <stop stop-color="#020202" stop-opacity="0" offset="1"/>
   </linearGradient>
   <path id="svg_7" d="m240,25.162001l0,433.02199c0,0 31,50.81601 31,-134.18399c0,-114.999985 0,-157.999985 0,-216.999992c-1,-34 -31,-81.837988 -31,-81.837988l0,-0.000019z" fill="url(#SVGID_4_)"/>
   <linearGradient y2="NaN" x2="NaN" y1="NaN" x1="NaN" id="SVGID_5_">
    <stop stop-color="#020202" offset="0"/>
    <stop stop-color="#020202" offset="1"/>
   </linearGradient>
   <path id="svg_8" d="m-54,92" fill="url(#SVGID_5_)"/>
  </g>
  <text xml:space="preserve" text-anchor="middle" font-family="Arial" font-size="24" id="svg_9" y="234" x="222" stroke-linecap="null" stroke-linejoin="null" stroke-dasharray="null" stroke-width="0" fill="#000000"/>
 </g>
</svg>